<?xml version="1.0"?>
<svg width="1536" height="1024" xmlns="http://www.w3.org/2000/svg" xmlns:svg="http://www.w3.org/2000/svg" preserveAspectRatio="xMidYMid meet" version="1.0">
 <g class="layer">
  <title>Layer 1</title>
  <g fill="#000000" id="svg_1" transform="matrix(0.272793 0 0 -0.233144 -1310.96 -607.824)">
   <path d="m7597,-2919l6,-289l-54,-27c-30,-15 -65,-35 -79,-45c-17,-12 -54,-20 -120,-24c-148,-11 -265,-33 -391,-76c-418,-139 -694,-403 -886,-850c-84,-194 -156,-381 -150,-387c4,-3 55,8 114,25c59,17 122,33 139,37l31,6l-22,-84c-36,-134 -48,-272 -42,-483c4,-168 25,-361 45,-414c7,-18 11,-17 87,15c44,19 87,39 96,44c23,13 29,4 29,-40c0,-20 13,-90 30,-154c32,-128 130,-343 230,-502l51,-83l77,42c42,23 83,46 90,51c7,5 13,8 15,6c1,-2 28,-56 60,-119c70,-139 154,-254 277,-378c112,-114 298,-254 419,-317l32,-16l86,57c356,231 596,500 677,756c5,16 12,14 63,-17c32,-19 75,-41 95,-49l37,-16l34,58c173,284 258,490 283,679l7,52l25,-19c13,-11 29,-20 34,-20c5,0 39,-12 74,-26c36,-14 67,-24 69,-22c2,2 12,60 21,128c14,94 18,189 18,380c0,226 -3,266 -22,355c-12,55 -27,104 -32,109c-6,6 -10,15 -10,22c0,13 194,-34 252,-62c21,-10 40,-15 44,-12c7,8 -152,391 -218,521c-159,318 -407,555 -713,682c-176,73 -358,115 -502,115c-78,0 -84,2 -140,38c-32,21 -73,44 -91,52l-34,13l4,289l3,288l-77,0l-77,0l6,-289zm51,-653c7,-134 16,-270 20,-303c7,-58 7,-56 13,50c3,61 12,197 19,302l14,193l46,-27c141,-82 241,-217 312,-423c31,-91 32,-102 32,-245c1,-176 -19,-268 -85,-401c-66,-132 -200,-296 -300,-369l-46,-33l-54,42c-151,119 -298,337 -351,523c-20,67 -23,101 -23,238c1,158 1,161 38,269c44,129 90,209 167,290c46,49 161,136 181,136c3,0 11,-109 17,-242zm-362,108c-14,-19 -26,-39 -26,-45c0,-6 -6,-11 -14,-11c-21,0 -141,-76 -206,-129c-110,-92 -224,-225 -285,-331c-5,-8 50,41 121,110c94,90 155,140 219,178c50,29 91,48 93,42c2,-6 -1,-16 -6,-23c-17,-20 -61,-186 -68,-253c-6,-58 -12,-69 -69,-141c-145,-184 -340,-278 -703,-338c-111,-19 -207,-37 -212,-40c-6,-4 -10,-5 -10,-3c0,21 139,326 179,394c200,333 495,535 886,603c61,11 114,20 119,20c4,1 -3,-14 -18,-33zm957,-2c389,-98 680,-331 860,-689c32,-65 127,-281 127,-290c0,-2 -14,0 -31,5c-17,5 -97,19 -177,30c-176,25 -232,39 -345,84c-170,69 -252,124 -355,238c-74,82 -81,97 -91,179c-9,63 -47,198 -76,263c-8,17 -7,17 26,1c94,-49 185,-122 312,-250l139,-140l-58,85c-81,119 -128,176 -210,250c-70,64 -92,81 -209,155c-64,41 -125,93 -125,108c0,13 99,0 213,-29zm-1055,-942c28,-61 70,-140 95,-175l44,-64l-40,-69c-49,-85 -133,-190 -200,-250c-66,-59 -196,-144 -294,-192l-79,-38l-32,105c-67,220 -93,407 -78,553l7,66l87,31c48,17 118,47 156,66c39,19 71,33 72,32c0,-1 -6,-43 -14,-94c-11,-67 -12,-107 -6,-145l10,-53l18,74c16,62 67,176 136,301c8,14 14,30 15,35c0,6 7,20 15,32c14,22 15,20 26,-40c7,-34 34,-113 62,-175zm1066,196c-2,-4 0,-9 6,-13c5,-3 10,-20 10,-37c0,-20 12,-45 33,-72c50,-62 88,-133 113,-211l23,-70l0,100c0,55 -3,117 -8,138c-11,44 -4,46 47,12c39,-25 211,-95 235,-95c21,0 27,-29 33,-160c6,-95 3,-135 -15,-229c-17,-88 -84,-328 -97,-349c-5,-8 -177,86 -249,136c-169,117 -272,226 -329,347l-34,69l40,59c22,32 55,89 73,125c38,77 98,248 97,276c-1,18 -1,18 13,0c7,-10 11,-22 9,-26zm-1741,-728c15,-52 32,-114 39,-137c11,-38 9,-46 -12,-87c-13,-26 -38,-64 -56,-85c-39,-45 -193,-137 -199,-118c-2,7 -9,64 -16,128c-14,134 -7,369 15,469c15,69 61,218 73,236c5,6 33,15 63,20l55,9l6,-170c5,-141 11,-186 32,-265zm2449,414c43,-7 47,-15 83,-159c39,-154 51,-314 37,-511c-6,-91 -14,-169 -17,-175c-4,-5 -38,7 -78,28c-84,43 -222,176 -211,203c65,155 85,258 91,453l6,178l26,-5c14,-3 43,-8 63,-12zm-1379,-386l67,-50l1,-87c1,-47 4,-97 8,-111c7,-23 8,-23 14,-5c3,11 9,59 12,107l7,86l42,34c22,18 77,65 121,104l80,71l35,-61c19,-33 71,-98 116,-144l81,-84l-19,-71c-24,-90 -74,-197 -135,-290c-56,-84 -191,-228 -279,-297l-61,-48l-54,42c-200,158 -381,413 -424,601l-16,67l62,66c70,75 145,173 154,203c6,18 12,15 63,-31c31,-28 87,-74 125,-102zm740,-251c23,-19 81,-56 128,-83l87,-48l6,-51c10,-87 6,-147 -18,-240c-13,-49 -23,-91 -21,-93c5,-5 66,119 91,185c15,37 29,91 33,118c6,48 7,50 41,53c19,2 40,7 45,12c6,5 33,-14 69,-48l58,-56l-6,-60c-15,-145 -102,-372 -209,-547l-40,-66l-71,40c-222,125 -399,277 -458,392c-11,22 -25,43 -31,47c-7,4 3,23 24,50c95,117 198,305 215,393c3,19 8,35 11,35c3,0 23,-15 46,-33zm-1229,-55c34,-93 117,-235 185,-317c56,-67 57,-54 -23,-164c-101,-139 -249,-257 -443,-355c-29,-14 -54,-26 -56,-26c-13,0 -107,180 -149,284c-57,139 -84,234 -93,332l-7,69l60,52c54,47 60,50 65,32c5,-17 11,-19 39,-14l33,6l25,-88c20,-74 111,-283 123,-283c2,0 -7,30 -19,66c-26,78 -39,200 -29,282l6,58l110,59c60,32 114,64 120,72c6,7 14,13 18,13c3,0 19,-35 35,-78zm978,-650l85,-83l-13,-72c-20,-115 -32,-153 -74,-237c-51,-102 -104,-186 -143,-227c-17,-18 -26,-33 -20,-33c18,0 169,168 220,244c46,69 76,135 97,214c11,41 12,42 34,27c16,-12 22,-26 22,-55c0,-27 6,-43 19,-52c18,-13 18,-16 -20,-93c-21,-44 -62,-111 -90,-150c-100,-133 -327,-341 -463,-424l-56,-33l-52,33c-196,123 -417,345 -521,525c-22,37 -87,186 -87,197c0,7 70,50 74,46c2,-2 20,-35 39,-74c19,-38 59,-105 89,-147c50,-73 209,-260 215,-254c2,2 -17,33 -41,69c-104,155 -177,317 -194,429l-9,57l84,83c47,46 96,102 109,125c14,23 31,40 40,39c9,-1 67,-45 129,-97l114,-94l1,-75c0,-41 5,-82 10,-90c7,-10 10,13 10,75l0,90l38,22c20,12 77,59 126,103l89,82l27,-43c16,-24 66,-81 112,-127z" id="svg_2"/>
  </g>
 </g>
</svg>